<?xml version="1.0" encoding="UTF-8"?>
<svg xmlns="http://www.w3.org/2000/svg" xmlns:xlink="http://www.w3.org/1999/xlink" width="595.5pt" height="842.249979pt" viewBox="0 0 595.5 842.249979" version="1.2">
<defs>
<clipPath id="clip1">
  <path d="M 256 398 L 340 398 L 340 466.242188 L 256 466.242188 Z M 256 398 "/>
</clipPath>
<clipPath id="clip2">
  <path d="M 240 375.496094 L 355.476562 375.496094 L 355.476562 408 L 240 408 Z M 240 375.496094 "/>
</clipPath>
<clipPath id="clip3">
  <path d="M 288 447 L 308 447 L 308 466.242188 L 288 466.242188 Z M 288 447 "/>
</clipPath>
</defs>
<g id="surface1">
<g clip-path="url(#clip1)" clip-rule="nonzero">
<path style=" stroke:none;fill-rule:nonzero;fill:rgb(34.509277%,85.099792%,86.669922%);fill-opacity:1;" d="M 264.441406 423.625 C 273.679688 414.675781 284.769531 409.878906 297.746094 409.882812 C 310.71875 409.886719 321.804688 414.691406 330.980469 423.589844 C 333.695312 420.890625 336.390625 418.214844 339.078125 415.539062 C 315.933594 392.15625 278.1875 393.1875 256.351562 415.585938 C 259.03125 418.25 261.714844 420.917969 264.441406 423.625 Z M 280.601562 439.902344 C 285.390625 435.265625 291.070312 432.765625 297.730469 432.761719 C 304.402344 432.761719 310.09375 435.273438 314.738281 439.78125 C 317.480469 437.050781 320.171875 434.378906 322.859375 431.703125 C 308.214844 417.058594 285.273438 418.5625 272.523438 431.824219 C 272.570312 431.878906 272.613281 431.945312 272.664062 431.996094 C 275.292969 434.613281 277.917969 437.230469 280.601562 439.902344 Z M 307.023438 457.046875 C 307.027344 451.945312 302.898438 447.824219 297.792969 447.824219 C 292.71875 447.828125 288.578125 451.941406 288.558594 457 C 288.539062 462.085938 292.675781 466.234375 297.773438 466.242188 C 302.894531 466.253906 307.019531 462.144531 307.023438 457.046875 Z M 307.023438 457.046875 "/>
</g>
<g clip-path="url(#clip2)" clip-rule="nonzero">
<path style=" stroke:none;fill-rule:nonzero;fill:rgb(34.509277%,85.099792%,86.669922%);fill-opacity:1;" d="M 355.414062 399.566406 C 355.253906 399.691406 355.074219 399.796875 354.929688 399.9375 C 352.546875 402.308594 350.167969 404.6875 347.792969 407.066406 C 347.644531 407.214844 347.539062 407.40625 347.40625 407.589844 C 333.492188 394.144531 317.03125 387.007812 297.730469 387.007812 C 278.449219 387.007812 262 394.132812 248.136719 407.503906 C 248.007812 407.382812 247.855469 407.242188 247.710938 407.101562 C 245.320312 404.714844 242.925781 402.324219 240.53125 399.9375 C 240.386719 399.796875 240.207031 399.691406 240.046875 399.566406 C 240.046875 399.492188 240.046875 399.414062 240.046875 399.335938 C 240.195312 399.21875 240.355469 399.117188 240.488281 398.988281 C 243.382812 396.171875 246.441406 393.542969 249.707031 391.164062 C 258.34375 384.878906 267.84375 380.421875 278.222656 377.859375 C 282.757812 376.742188 287.359375 375.996094 292.035156 375.714844 C 292.953125 375.664062 293.867188 375.570312 294.785156 375.496094 C 296.746094 375.496094 298.710938 375.496094 300.675781 375.496094 C 300.804688 375.523438 300.933594 375.5625 301.066406 375.574219 C 303.441406 375.78125 305.820312 375.933594 308.1875 376.199219 C 313.027344 376.742188 317.753906 377.828125 322.390625 379.308594 C 334.5 383.191406 345.136719 389.546875 354.300781 398.355469 C 354.65625 398.699219 355.042969 399.011719 355.414062 399.335938 C 355.414062 399.414062 355.414062 399.492188 355.414062 399.566406 Z M 355.414062 399.566406 "/>
</g>
<path style=" stroke:none;fill-rule:nonzero;fill:rgb(34.509277%,85.099792%,86.669922%);fill-opacity:1;" d="M 264.441406 423.625 C 261.714844 420.917969 259.03125 418.25 256.351562 415.585938 C 278.1875 393.1875 315.933594 392.15625 339.078125 415.539062 C 336.390625 418.214844 333.695312 420.890625 330.980469 423.589844 C 321.804688 414.691406 310.71875 409.886719 297.746094 409.882812 C 284.769531 409.878906 273.679688 414.675781 264.441406 423.625 Z M 264.441406 423.625 "/>
<path style=" stroke:none;fill-rule:nonzero;fill:rgb(34.509277%,85.099792%,86.669922%);fill-opacity:1;" d="M 280.601562 439.902344 C 277.917969 437.230469 275.292969 434.613281 272.664062 431.996094 C 272.613281 431.945312 272.570312 431.882812 272.523438 431.824219 C 285.273438 418.5625 308.214844 417.058594 322.859375 431.703125 C 320.171875 434.378906 317.480469 437.054688 314.738281 439.78125 C 310.09375 435.277344 304.402344 432.761719 297.730469 432.761719 C 291.070312 432.765625 285.390625 435.265625 280.601562 439.902344 Z M 280.601562 439.902344 "/>
<g clip-path="url(#clip3)" clip-rule="nonzero">
<path style=" stroke:none;fill-rule:nonzero;fill:rgb(34.509277%,85.099792%,86.669922%);fill-opacity:1;" d="M 307.023438 457.046875 C 307.019531 462.144531 302.894531 466.253906 297.773438 466.242188 C 292.675781 466.234375 288.539062 462.085938 288.558594 457 C 288.578125 451.941406 292.71875 447.828125 297.792969 447.824219 C 302.898438 447.824219 307.027344 451.945312 307.023438 457.046875 Z M 307.023438 457.046875 "/>
</g>
</g>
</svg>
