<?xml version="1.0" encoding="UTF-8"?>
<svg xmlns="http://www.w3.org/2000/svg" xmlns:xlink="http://www.w3.org/1999/xlink" width="595.5pt" height="842.249979pt" viewBox="0 0 595.5 842.249979" version="1.2">
<defs>
<clipPath id="clip1">
  <path d="M 230.746094 429 L 364.238281 429 L 364.238281 498.382812 L 230.746094 498.382812 Z M 230.746094 429 "/>
</clipPath>
<clipPath id="clip2">
  <path d="M 284 343.140625 L 290 343.140625 L 290 362 L 284 362 Z M 284 343.140625 "/>
</clipPath>
</defs>
<g id="surface1">
<path style=" stroke:none;fill-rule:nonzero;fill:rgb(34.509277%,85.099792%,86.669922%);fill-opacity:1;" d="M 316.894531 389.835938 C 316.894531 387.167969 314.714844 384.984375 312.046875 384.984375 L 296.035156 384.984375 L 291.1875 370.671875 C 290.457031 368.730469 288.640625 367.398438 286.578125 367.398438 C 284.515625 367.398438 282.695312 368.730469 281.96875 370.671875 L 277.117188 384.984375 L 261.109375 384.984375 C 258.925781 384.984375 257.109375 386.316406 256.5 388.378906 C 255.894531 390.441406 256.621094 392.625 258.320312 393.835938 L 271.054688 402.691406 L 266.203125 416.882812 C 265.476562 418.820312 266.203125 421.003906 267.902344 422.339844 C 268.75 422.945312 269.839844 423.308594 270.8125 423.308594 C 271.78125 423.308594 272.753906 423.066406 273.601562 422.460938 L 286.578125 413.363281 L 299.554688 422.339844 C 300.402344 422.945312 301.371094 423.1875 302.34375 423.1875 C 303.433594 423.1875 304.40625 422.824219 305.253906 422.21875 C 306.953125 421.003906 307.558594 418.820312 306.953125 416.761719 L 302.101562 402.570312 L 314.714844 393.835938 C 316.046875 392.988281 316.894531 391.535156 316.894531 389.835938 Z M 296.277344 400.75 L 302.34375 418.335938 L 286.578125 407.421875 L 270.8125 418.335938 L 276.875 400.75 L 261.109375 389.835938 L 280.511719 389.835938 L 286.578125 372.25 L 292.640625 389.835938 L 312.046875 389.835938 Z M 296.277344 400.75 "/>
<g clip-path="url(#clip1)" clip-rule="nonzero">
<path style=" stroke:none;fill-rule:nonzero;fill:rgb(34.509277%,85.099792%,86.669922%);fill-opacity:1;" d="M 245.222656 457.753906 L 289.609375 497.171875 C 290.457031 498.019531 291.671875 498.382812 292.882812 498.382812 L 344.789062 498.382812 C 345.273438 498.382812 345.636719 498.382812 346 498.261719 C 346.367188 498.382812 346.730469 498.382812 347.214844 498.382812 L 359.34375 498.382812 C 362.011719 498.382812 364.191406 496.199219 364.191406 493.53125 L 364.191406 457.148438 C 364.191406 454.480469 362.011719 452.296875 359.34375 452.296875 L 347.214844 452.296875 C 344.546875 452.296875 342.363281 454.480469 342.363281 457.148438 L 342.363281 459.9375 L 339.210938 459.9375 L 331.449219 443.804688 L 335.085938 443.804688 C 339.089844 443.804688 342.363281 440.53125 342.363281 436.53125 C 342.363281 432.527344 339.089844 429.253906 335.085938 429.253906 L 238.066406 429.253906 C 234.066406 429.253906 230.789062 432.527344 230.789062 436.53125 C 230.789062 440.53125 234.066406 443.804688 238.066406 443.804688 L 243.765625 443.804688 C 242.675781 445.261719 241.949219 447.082031 241.707031 449.144531 C 241.464844 452.417969 242.796875 455.570312 245.222656 457.753906 Z M 347.214844 457.148438 L 359.34375 457.148438 L 359.34375 493.53125 L 347.214844 493.53125 Z M 336.179688 464.789062 L 342.363281 464.789062 L 342.363281 493.53125 L 292.761719 493.53125 L 248.375 454.117188 C 245.585938 451.691406 246.070312 447.324219 249.101562 445.382812 C 249.953125 444.898438 250.921875 444.535156 252.015625 444.535156 C 253.347656 444.535156 254.683594 445.019531 255.652344 445.988281 L 291.792969 478.855469 L 316.773438 465.394531 L 316.773438 443.804688 L 325.992188 443.804688 Z M 278.089844 454.117188 L 285.242188 466.242188 L 260.625 443.804688 L 278.089844 443.804688 C 277.84375 444.171875 277.722656 444.414062 277.601562 444.777344 C 276.269531 447.808594 276.390625 451.203125 278.089844 454.117188 Z M 303.3125 467.214844 L 294.21875 472.066406 L 282.210938 451.691406 C 280.511719 448.65625 282.089844 444.898438 285.242188 443.804688 L 288.761719 443.804688 C 289.972656 444.292969 291.0625 445.140625 291.792969 446.351562 Z M 295.914062 443.804688 L 311.921875 443.804688 L 311.921875 462.484375 L 307.558594 464.910156 L 296.035156 444.050781 C 296.035156 443.925781 295.914062 443.925781 295.914062 443.804688 Z M 238.066406 438.957031 C 236.734375 438.957031 235.640625 437.863281 235.640625 436.53125 C 235.640625 435.195312 236.734375 434.105469 238.066406 434.105469 L 335.085938 434.105469 C 336.421875 434.105469 337.511719 435.195312 337.511719 436.53125 C 337.511719 437.863281 336.421875 438.957031 335.085938 438.957031 Z M 238.066406 438.957031 "/>
</g>
<g clip-path="url(#clip2)" clip-rule="nonzero">
<path style=" stroke:none;fill-rule:nonzero;fill:rgb(34.509277%,85.099792%,86.669922%);fill-opacity:1;" d="M 289.367188 358.910156 L 289.367188 345.566406 C 289.367188 344.234375 288.273438 343.140625 286.941406 343.140625 C 285.605469 343.140625 284.515625 344.234375 284.515625 345.566406 L 284.515625 358.910156 C 284.515625 360.242188 285.605469 361.335938 286.941406 361.335938 C 288.273438 361.335938 289.367188 360.242188 289.367188 358.910156 Z M 289.367188 358.910156 "/>
</g>
<path style=" stroke:none;fill-rule:nonzero;fill:rgb(34.509277%,85.099792%,86.669922%);fill-opacity:1;" d="M 324.65625 358.789062 C 323.6875 357.816406 322.230469 357.816406 321.261719 358.789062 L 310.105469 369.945312 C 309.132812 370.914062 309.132812 372.371094 310.105469 373.339844 C 310.589844 373.828125 311.195312 374.070312 311.800781 374.070312 C 312.410156 374.070312 313.015625 373.828125 313.5 373.339844 L 324.65625 362.183594 C 325.507812 361.210938 325.507812 359.757812 324.65625 358.789062 Z M 324.65625 358.789062 "/>
<path style=" stroke:none;fill-rule:nonzero;fill:rgb(34.509277%,85.099792%,86.669922%);fill-opacity:1;" d="M 249.101562 358.789062 C 248.132812 359.757812 248.132812 361.210938 249.101562 362.183594 L 260.261719 373.339844 C 260.746094 373.828125 261.351562 374.070312 261.957031 374.070312 C 262.566406 374.070312 263.171875 373.828125 263.65625 373.339844 C 264.625 372.371094 264.625 370.914062 263.65625 369.945312 L 252.621094 358.789062 C 251.648438 357.816406 250.074219 357.816406 249.101562 358.789062 Z M 249.101562 358.789062 "/>
</g>
</svg>
