<?xml version="1.0" encoding="UTF-8"?>
<svg xmlns="http://www.w3.org/2000/svg" xmlns:xlink="http://www.w3.org/1999/xlink" width="595.5pt" height="842.249979pt" viewBox="0 0 595.5 842.249979" version="1.2">
<defs>
<clipPath id="clip1">
  <path d="M 250.617188 362.601562 L 344.359375 362.601562 L 344.359375 479.597656 L 250.617188 479.597656 Z M 250.617188 362.601562 "/>
</clipPath>
</defs>
<g id="surface1">
<g clip-path="url(#clip1)" clip-rule="nonzero">
<path style=" stroke:none;fill-rule:nonzero;fill:rgb(34.509277%,85.099792%,86.669922%);fill-opacity:1;" d="M 297.519531 479.597656 L 296.882812 479.371094 C 269.242188 469.71875 250.671875 443.457031 250.671875 414.019531 L 250.671875 386.128906 L 252.617188 386.128906 C 264.441406 386.128906 274.0625 376.453125 274.0625 364.558594 L 274.0625 362.601562 L 320.984375 362.601562 L 320.984375 364.558594 C 320.984375 376.453125 330.601562 386.128906 342.417969 386.128906 L 344.363281 386.128906 L 344.363281 414.019531 C 344.363281 443.457031 325.792969 469.722656 298.15625 479.371094 Z M 254.558594 389.96875 L 254.558594 414.019531 C 254.558594 441.566406 271.796875 466.167969 297.519531 475.453125 C 323.242188 466.167969 340.476562 441.566406 340.476562 414.019531 L 340.476562 389.96875 C 328.058594 389.015625 318.117188 379.007812 317.171875 366.511719 L 277.875 366.511719 C 276.925781 379.007812 266.980469 389.015625 254.558594 389.96875 Z M 254.558594 389.96875 "/>
</g>
<path style=" stroke:none;fill-rule:nonzero;fill:rgb(34.509277%,85.099792%,86.669922%);fill-opacity:1;" d="M 297.519531 471.285156 L 296.796875 470.996094 C 273.5 461.632812 258.445312 439.269531 258.445312 414.019531 L 258.445312 393.40625 L 259.90625 393.027344 C 270.210938 390.355469 278.257812 382.253906 280.914062 371.890625 L 281.289062 370.421875 L 313.753906 370.421875 L 314.132812 371.890625 C 316.785156 382.253906 324.832031 390.355469 335.132812 393.027344 L 336.589844 393.40625 L 336.589844 414.019531 C 336.589844 439.269531 321.535156 461.632812 298.242188 470.996094 Z M 262.332031 396.398438 L 262.332031 414.019531 C 262.332031 437.398438 276.117188 458.132812 297.519531 467.070312 C 318.921875 458.136719 332.703125 437.398438 332.703125 414.019531 L 332.703125 396.398438 C 322.21875 393.15625 313.996094 384.886719 310.78125 374.332031 L 284.265625 374.332031 C 281.046875 384.886719 272.824219 393.160156 262.332031 396.398438 Z M 262.332031 396.398438 "/>
<path style=" stroke:none;fill-rule:nonzero;fill:rgb(34.509277%,85.099792%,86.669922%);fill-opacity:1;" d="M 295.132812 427.019531 L 286.4375 418.269531 L 289.1875 415.507812 L 295.132812 421.492188 L 305.851562 410.707031 L 308.597656 413.472656 Z M 295.132812 427.019531 "/>
<path style=" stroke:none;fill-rule:nonzero;fill:rgb(34.509277%,85.099792%,86.669922%);fill-opacity:1;" d="M 297.519531 438.375 C 286.445312 438.375 277.4375 429.3125 277.4375 418.171875 C 277.4375 407.03125 286.445312 397.96875 297.519531 397.96875 C 308.589844 397.96875 317.597656 407.03125 317.597656 418.171875 C 317.597656 429.3125 308.589844 438.375 297.519531 438.375 Z M 297.519531 401.878906 C 288.589844 401.878906 281.324219 409.1875 281.324219 418.171875 C 281.324219 427.15625 288.589844 434.46875 297.519531 434.46875 C 306.449219 434.46875 313.710938 427.15625 313.710938 418.171875 C 313.710938 409.1875 306.445312 401.878906 297.519531 401.878906 Z M 297.519531 401.878906 "/>
</g>
</svg>
