<?xml version="1.0" encoding="UTF-8"?>
<svg xmlns="http://www.w3.org/2000/svg" xmlns:xlink="http://www.w3.org/1999/xlink" width="595.5pt" height="842.249979pt" viewBox="0 0 595.5 842.249979" version="1.2">
<defs>
<clipPath id="clip1">
  <path d="M 238.113281 342.089844 L 264 342.089844 L 264 420 L 238.113281 420 Z M 238.113281 342.089844 "/>
</clipPath>
<clipPath id="clip2">
  <path d="M 332 342.089844 L 357.355469 342.089844 L 357.355469 420 L 332 420 Z M 332 342.089844 "/>
</clipPath>
<clipPath id="clip3">
  <path d="M 283 367 L 314 367 L 314 463.585938 L 283 463.585938 Z M 283 367 "/>
</clipPath>
</defs>
<g id="surface1">
<path style=" stroke:none;fill-rule:nonzero;fill:rgb(34.509277%,85.099792%,86.669922%);fill-opacity:1;" d="M 275.066406 402.425781 C 268.25 399.777344 263.488281 390.796875 263.488281 380.582031 C 263.488281 371.328125 267.335938 363.09375 273.289062 359.601562 C 274.609375 358.828125 275.050781 357.128906 274.277344 355.8125 C 273.507812 354.492188 271.8125 354.046875 270.492188 354.820312 C 262.875 359.289062 257.953125 369.402344 257.953125 380.582031 C 257.953125 393.226562 264.027344 404.078125 273.066406 407.589844 C 273.394531 407.71875 273.734375 407.777344 274.066406 407.777344 C 275.171875 407.777344 276.21875 407.109375 276.644531 406.011719 C 277.195312 404.585938 276.492188 402.980469 275.066406 402.425781 Z M 275.066406 402.425781 "/>
<g clip-path="url(#clip1)" clip-rule="nonzero">
<path style=" stroke:none;fill-rule:nonzero;fill:rgb(34.509277%,85.099792%,86.669922%);fill-opacity:1;" d="M 261.691406 413.976562 C 251.074219 409.851562 243.660156 396.015625 243.660156 380.328125 C 243.660156 366.136719 249.628906 353.464844 258.863281 348.050781 C 260.183594 347.277344 260.625 345.578125 259.851562 344.261719 C 259.082031 342.941406 257.382812 342.496094 256.066406 343.269531 C 245.167969 349.664062 238.128906 364.207031 238.128906 380.328125 C 238.128906 398.246094 246.992188 414.207031 259.6875 419.140625 C 260.015625 419.269531 260.355469 419.328125 260.6875 419.328125 C 261.796875 419.328125 262.84375 418.660156 263.269531 417.5625 C 263.820312 416.136719 263.117188 414.53125 261.691406 413.976562 Z M 261.691406 413.976562 "/>
</g>
<path style=" stroke:none;fill-rule:nonzero;fill:rgb(34.509277%,85.099792%,86.669922%);fill-opacity:1;" d="M 324.976562 354.820312 C 323.660156 354.046875 321.964844 354.492188 321.191406 355.8125 C 320.417969 357.132812 320.863281 358.828125 322.179688 359.601562 C 328.136719 363.09375 331.984375 371.328125 331.984375 380.582031 C 331.984375 390.796875 327.222656 399.777344 320.40625 402.425781 C 318.980469 402.980469 318.273438 404.585938 318.828125 406.011719 C 319.253906 407.109375 320.300781 407.777344 321.40625 407.777344 C 321.742188 407.777344 322.078125 407.71875 322.40625 407.589844 C 331.445312 404.078125 337.519531 393.226562 337.519531 380.582031 C 337.515625 369.402344 332.59375 359.289062 324.976562 354.820312 Z M 324.976562 354.820312 "/>
<g clip-path="url(#clip2)" clip-rule="nonzero">
<path style=" stroke:none;fill-rule:nonzero;fill:rgb(34.509277%,85.099792%,86.669922%);fill-opacity:1;" d="M 339.40625 343.269531 C 338.085938 342.496094 336.390625 342.941406 335.621094 344.261719 C 334.847656 345.578125 335.289062 347.277344 336.609375 348.050781 C 345.84375 353.464844 351.808594 366.136719 351.808594 380.328125 C 351.808594 396.015625 344.394531 409.851562 333.78125 413.976562 C 332.355469 414.53125 331.648438 416.136719 332.203125 417.5625 C 332.628906 418.660156 333.675781 419.328125 334.78125 419.328125 C 335.117188 419.328125 335.457031 419.269531 335.78125 419.140625 C 348.476562 414.207031 357.34375 398.246094 357.34375 380.328125 C 357.34375 364.207031 350.304688 349.664062 339.40625 343.269531 Z M 339.40625 343.269531 "/>
</g>
<g clip-path="url(#clip3)" clip-rule="nonzero">
<path style=" stroke:none;fill-rule:nonzero;fill:rgb(34.509277%,85.099792%,86.669922%);fill-opacity:1;" d="M 298.855469 367.539062 C 290.605469 367.539062 283.917969 374.234375 283.917969 382.492188 C 283.917969 388.773438 287.785156 394.144531 293.265625 396.363281 L 293.265625 457.734375 C 293.265625 460.820312 295.773438 463.332031 298.855469 463.332031 C 301.941406 463.332031 304.449219 460.820312 304.449219 457.734375 L 304.449219 396.363281 C 309.929688 394.144531 313.796875 388.773438 313.796875 382.492188 C 313.796875 374.234375 307.105469 367.539062 298.855469 367.539062 Z M 298.855469 367.539062 "/>
</g>
</g>
</svg>
