<?xml version="1.0" encoding="UTF-8"?>
<svg xmlns="http://www.w3.org/2000/svg" xmlns:xlink="http://www.w3.org/1999/xlink" width="595.5pt" height="842.249979pt" viewBox="0 0 595.5 842.249979" version="1.2">
<defs>
<clipPath id="clip1">
  <path d="M 221.75 371.40625 L 373.242188 371.40625 L 373.242188 470.402344 L 221.75 470.402344 Z M 221.75 371.40625 "/>
</clipPath>
</defs>
<g id="surface1">
<path style=" stroke:none;fill-rule:nonzero;fill:rgb(34.509277%,85.099792%,86.669922%);fill-opacity:1;" d="M 323.789062 383.308594 C 322.445312 383.308594 321.355469 384.398438 321.355469 385.746094 L 321.355469 420.90625 C 321.355469 422.25 322.445312 423.339844 323.789062 423.339844 L 345.039062 423.339844 C 346.382812 423.339844 347.472656 422.25 347.472656 420.90625 C 347.472656 419.558594 346.382812 418.46875 345.039062 418.46875 L 326.222656 418.46875 L 326.222656 385.746094 C 326.222656 384.398438 325.132812 383.308594 323.789062 383.308594 "/>
<path style=" stroke:none;fill-rule:nonzero;fill:rgb(34.509277%,85.099792%,86.669922%);fill-opacity:1;" d="M 238.769531 430.804688 L 277.394531 430.804688 C 278.738281 430.804688 279.828125 429.714844 279.828125 428.367188 C 279.828125 427.019531 278.738281 425.929688 277.394531 425.929688 L 238.769531 425.929688 C 237.425781 425.929688 236.335938 427.019531 236.335938 428.367188 C 236.335938 429.714844 237.425781 430.804688 238.769531 430.804688 "/>
<path style=" stroke:none;fill-rule:nonzero;fill:rgb(34.509277%,85.099792%,86.669922%);fill-opacity:1;" d="M 253.289062 415.875 L 277.394531 415.875 C 278.738281 415.875 279.828125 414.785156 279.828125 413.4375 C 279.828125 412.09375 278.738281 411.003906 277.394531 411.003906 L 253.289062 411.003906 C 251.945312 411.003906 250.855469 412.09375 250.855469 413.4375 C 250.855469 414.785156 251.945312 415.875 253.289062 415.875 "/>
<g clip-path="url(#clip1)" clip-rule="nonzero">
<path style=" stroke:none;fill-rule:nonzero;fill:rgb(34.509277%,85.099792%,86.669922%);fill-opacity:1;" d="M 323.789062 371.414062 C 306.132812 371.414062 289.90625 380.835938 281.0625 396.078125 L 267.804688 396.078125 C 266.460938 396.078125 265.371094 397.167969 265.371094 398.515625 C 265.371094 399.859375 266.460938 400.949219 267.804688 400.949219 L 282.453125 400.949219 C 282.695312 400.949219 282.914062 400.878906 283.132812 400.8125 C 283.148438 400.808594 283.164062 400.808594 283.179688 400.804688 C 283.433594 400.722656 283.65625 400.601562 283.871094 400.445312 C 283.921875 400.40625 283.980469 400.378906 284.03125 400.335938 C 284.191406 400.195312 284.3125 400.03125 284.433594 399.855469 C 284.488281 399.777344 284.566406 399.726562 284.613281 399.640625 C 292.425781 385.234375 307.4375 376.289062 323.789062 376.289062 C 348.351562 376.289062 368.335938 396.304688 368.335938 420.90625 C 368.335938 445.503906 348.351562 465.519531 323.789062 465.519531 C 307.417969 465.519531 292.398438 456.558594 284.59375 442.132812 C 284.539062 442.03125 284.449219 441.96875 284.382812 441.878906 C 284.28125 441.742188 284.1875 441.605469 284.058594 441.492188 C 283.945312 441.390625 283.816406 441.316406 283.6875 441.238281 C 283.546875 441.15625 283.417969 441.074219 283.265625 441.019531 C 283.109375 440.964844 282.953125 440.949219 282.789062 440.921875 C 282.675781 440.90625 282.574219 440.855469 282.453125 440.855469 L 224.253906 440.855469 C 222.910156 440.855469 221.820312 441.945312 221.820312 443.292969 C 221.820312 444.640625 222.910156 445.730469 224.253906 445.730469 L 281.0625 445.730469 C 289.90625 460.96875 306.125 470.394531 323.789062 470.394531 C 351.035156 470.394531 373.203125 448.195312 373.203125 420.90625 C 373.203125 393.613281 351.035156 371.414062 323.789062 371.414062 "/>
</g>
</g>
</svg>
