<?xml version="1.0" encoding="UTF-8"?>
<svg xmlns="http://www.w3.org/2000/svg" xmlns:xlink="http://www.w3.org/1999/xlink" width="595.5pt" height="842.249979pt" viewBox="0 0 595.5 842.249979" version="1.2">
<defs>
<clipPath id="clip1">
  <path d="M 287 380.476562 L 348.402344 380.476562 L 348.402344 461 L 287 461 Z M 287 380.476562 "/>
</clipPath>
<clipPath id="clip2">
  <path d="M 269 419 L 285 419 L 285 461.472656 L 269 461.472656 Z M 269 419 "/>
</clipPath>
<clipPath id="clip3">
  <path d="M 247.15625 421 L 268 421 L 268 461 L 247.15625 461 Z M 247.15625 421 "/>
</clipPath>
</defs>
<g id="surface1">
<g clip-path="url(#clip1)" clip-rule="nonzero">
<path style=" stroke:none;fill-rule:nonzero;fill:rgb(34.509277%,85.099792%,86.669922%);fill-opacity:1;" d="M 348.347656 419.550781 L 348.347656 417.867188 C 348.347656 415.070312 346.078125 412.804688 343.277344 412.804688 L 318.152344 412.804688 C 317.042969 407.953125 318.910156 401.570312 318.910156 401.570312 C 323.6875 380.464844 306.574219 380.476562 306.574219 380.476562 L 306.027344 398.300781 C 305.429688 404.214844 303.109375 408.992188 301.390625 411.828125 C 298.890625 415.144531 294.136719 421.558594 293.210938 423.5625 L 287.082031 423.5625 L 287.082031 455.621094 C 287.082031 455.621094 295.992188 459.078125 304.1875 459.878906 C 304.597656 459.988281 305.023438 460.050781 305.464844 460.050781 L 343.277344 460.050781 C 346.078125 460.050781 348.347656 457.785156 348.347656 454.988281 L 348.347656 453.300781 C 348.347656 450.503906 346.078125 448.238281 343.277344 448.238281 C 346.078125 448.238281 348.347656 445.972656 348.347656 443.175781 L 348.347656 441.488281 C 348.347656 438.695312 346.078125 436.425781 343.277344 436.425781 C 346.078125 436.425781 348.347656 434.164062 348.347656 431.363281 L 348.347656 429.679688 C 348.347656 426.882812 346.078125 424.617188 343.277344 424.617188 C 346.078125 424.617188 348.347656 422.347656 348.347656 419.550781 "/>
</g>
<g clip-path="url(#clip2)" clip-rule="nonzero">
<path style=" stroke:none;fill-rule:nonzero;fill:rgb(34.509277%,85.099792%,86.669922%);fill-opacity:1;" d="M 269.816406 461.472656 L 284.601562 461.472656 L 284.601562 419.710938 L 269.816406 419.710938 L 269.816406 461.472656 "/>
</g>
<g clip-path="url(#clip3)" clip-rule="nonzero">
<path style=" stroke:none;fill-rule:nonzero;fill:rgb(34.509277%,85.099792%,86.669922%);fill-opacity:1;" d="M 247.210938 460.480469 L 267.492188 460.480469 L 267.492188 421.507812 L 247.210938 421.507812 L 247.210938 460.480469 "/>
</g>
</g>
</svg>
